<mxfile host="65bd71144e">
    <diagram id="qjKI_UF-VJTnI8fUkCdp" name="Page-1">
        <mxGraphModel dx="1743" dy="392" grid="1" gridSize="10" guides="1" tooltips="1" connect="1" arrows="1" fold="1" page="1" pageScale="1" pageWidth="850" pageHeight="1100" math="0" shadow="0">
            <root>
                <mxCell id="0"/>
                <mxCell id="1" parent="0"/>
                <mxCell id="21" style="edgeStyle=none;html=1;entryX=0;entryY=0.5;entryDx=0;entryDy=0;fontColor=#000000;" parent="1" source="13" target="17" edge="1">
                    <mxGeometry relative="1" as="geometry"/>
                </mxCell>
                <mxCell id="46" value="Produces" style="edgeLabel;html=1;align=center;verticalAlign=middle;resizable=0;points=[];fontColor=#000000;" parent="21" vertex="1" connectable="0">
                    <mxGeometry x="-0.1328" y="4" relative="1" as="geometry">
                        <mxPoint x="-1" as="offset"/>
                    </mxGeometry>
                </mxCell>
                <mxCell id="13" value="Location Producer" style="html=1;dropTarget=0;" parent="1" vertex="1">
                    <mxGeometry x="130" y="390" width="140" height="70" as="geometry"/>
                </mxCell>
                <mxCell id="14" value="" style="shape=module;jettyWidth=8;jettyHeight=4;" parent="13" vertex="1">
                    <mxGeometry x="1" width="20" height="20" relative="1" as="geometry">
                        <mxPoint x="-27" y="7" as="offset"/>
                    </mxGeometry>
                </mxCell>
                <mxCell id="49" style="edgeStyle=none;html=1;fontColor=#000000;startArrow=none;startFill=0;" parent="1" source="15" target="25" edge="1">
                    <mxGeometry relative="1" as="geometry"/>
                </mxCell>
                <mxCell id="15" value="Location Consumer" style="html=1;dropTarget=0;" parent="1" vertex="1">
                    <mxGeometry x="640" y="390" width="140" height="70" as="geometry"/>
                </mxCell>
                <mxCell id="16" value="" style="shape=module;jettyWidth=8;jettyHeight=4;" parent="15" vertex="1">
                    <mxGeometry x="1" width="20" height="20" relative="1" as="geometry">
                        <mxPoint x="-27" y="7" as="offset"/>
                    </mxGeometry>
                </mxCell>
                <mxCell id="24" style="edgeStyle=none;html=1;entryX=0;entryY=0.5;entryDx=0;entryDy=0;fontColor=#000000;exitX=1;exitY=0.5;exitDx=0;exitDy=0;" parent="1" source="17" target="15" edge="1">
                    <mxGeometry relative="1" as="geometry"/>
                </mxCell>
                <mxCell id="47" value="Consumes" style="edgeLabel;html=1;align=center;verticalAlign=middle;resizable=0;points=[];fontColor=#000000;" parent="24" vertex="1" connectable="0">
                    <mxGeometry x="-0.0744" y="5" relative="1" as="geometry">
                        <mxPoint x="-1" as="offset"/>
                    </mxGeometry>
                </mxCell>
                <mxCell id="20" value="" style="group" parent="1" vertex="1" connectable="0">
                    <mxGeometry x="380" y="390" width="140" height="70" as="geometry"/>
                </mxCell>
                <mxCell id="17" value="&lt;img src=&quot;https://kafka.apache.org/logos/kafka_logo--simple.png&quot;&gt;" style="html=1;dropTarget=0;" parent="20" vertex="1">
                    <mxGeometry width="140" height="70" as="geometry"/>
                </mxCell>
                <mxCell id="18" value="" style="shape=module;jettyWidth=8;jettyHeight=4;" parent="17" vertex="1">
                    <mxGeometry x="1" width="20" height="20" relative="1" as="geometry">
                        <mxPoint x="-27" y="7" as="offset"/>
                    </mxGeometry>
                </mxCell>
                <mxCell id="60" value="" style="shape=image;verticalLabelPosition=bottom;labelBackgroundColor=#ffffff;verticalAlign=top;aspect=fixed;imageAspect=0;image=https://kafka.apache.org/logos/kafka_logo--simple.png;" parent="20" vertex="1">
                    <mxGeometry x="11.5" y="2.5" width="117" height="65" as="geometry"/>
                </mxCell>
                <mxCell id="25" value="PostgreSQL" style="html=1;dropTarget=0;" parent="1" vertex="1">
                    <mxGeometry x="640" y="180" width="140" height="70" as="geometry"/>
                </mxCell>
                <mxCell id="26" value="" style="shape=module;jettyWidth=8;jettyHeight=4;" parent="25" vertex="1">
                    <mxGeometry x="1" width="20" height="20" relative="1" as="geometry">
                        <mxPoint x="-27" y="7" as="offset"/>
                    </mxGeometry>
                </mxCell>
                <mxCell id="52" style="edgeStyle=none;html=1;fontColor=#000000;startArrow=none;startFill=0;" parent="1" source="27" target="29" edge="1">
                    <mxGeometry relative="1" as="geometry"/>
                </mxCell>
                <mxCell id="61" value="REST" style="edgeLabel;html=1;align=center;verticalAlign=middle;resizable=0;points=[];" vertex="1" connectable="0" parent="52">
                    <mxGeometry x="-0.0894" relative="1" as="geometry">
                        <mxPoint as="offset"/>
                    </mxGeometry>
                </mxCell>
                <mxCell id="56" style="edgeStyle=none;html=1;entryX=0;entryY=0.5;entryDx=0;entryDy=0;fontColor=#000000;startArrow=none;startFill=0;" parent="1" source="27" target="31" edge="1">
                    <mxGeometry relative="1" as="geometry"/>
                </mxCell>
                <mxCell id="62" value="REST" style="edgeLabel;html=1;align=center;verticalAlign=middle;resizable=0;points=[];" vertex="1" connectable="0" parent="56">
                    <mxGeometry x="-0.2311" y="1" relative="1" as="geometry">
                        <mxPoint as="offset"/>
                    </mxGeometry>
                </mxCell>
                <mxCell id="27" value="Frontend Client" style="html=1;dropTarget=0;" parent="1" vertex="1">
                    <mxGeometry x="130" y="60" width="140" height="70" as="geometry"/>
                </mxCell>
                <mxCell id="28" value="" style="shape=module;jettyWidth=8;jettyHeight=4;" parent="27" vertex="1">
                    <mxGeometry x="1" width="20" height="20" relative="1" as="geometry">
                        <mxPoint x="-27" y="7" as="offset"/>
                    </mxGeometry>
                </mxCell>
                <mxCell id="57" style="edgeStyle=none;html=1;entryX=0.5;entryY=0;entryDx=0;entryDy=0;fontColor=#000000;startArrow=classicThin;startFill=1;strokeColor=default;exitX=1;exitY=0.5;exitDx=0;exitDy=0;" parent="1" source="29" target="25" edge="1">
                    <mxGeometry relative="1" as="geometry"/>
                </mxCell>
                <mxCell id="29" value="Persons API" style="html=1;dropTarget=0;" parent="1" vertex="1">
                    <mxGeometry x="380" y="60" width="140" height="70" as="geometry"/>
                </mxCell>
                <mxCell id="30" value="" style="shape=module;jettyWidth=8;jettyHeight=4;" parent="29" vertex="1">
                    <mxGeometry x="1" width="20" height="20" relative="1" as="geometry">
                        <mxPoint x="-27" y="7" as="offset"/>
                    </mxGeometry>
                </mxCell>
                <mxCell id="54" style="edgeStyle=none;html=1;fontColor=#000000;startArrow=classic;startFill=1;" parent="1" source="31" target="25" edge="1">
                    <mxGeometry relative="1" as="geometry"/>
                </mxCell>
                <mxCell id="31" value="Connections API" style="html=1;dropTarget=0;" parent="1" vertex="1">
                    <mxGeometry x="380" y="180" width="140" height="70" as="geometry"/>
                </mxCell>
                <mxCell id="32" value="" style="shape=module;jettyWidth=8;jettyHeight=4;" parent="31" vertex="1">
                    <mxGeometry x="1" width="20" height="20" relative="1" as="geometry">
                        <mxPoint x="-27" y="7" as="offset"/>
                    </mxGeometry>
                </mxCell>
                <mxCell id="36" value="Mobile" style="outlineConnect=0;dashed=0;verticalLabelPosition=bottom;verticalAlign=top;align=center;html=1;shape=mxgraph.aws3.mobile_client;fillColor=#D2D3D3;gradientColor=none;labelBackgroundColor=none;fontColor=#000000;" parent="1" vertex="1">
                    <mxGeometry x="-40" y="375" width="64.29" height="100" as="geometry"/>
                </mxCell>
                <mxCell id="42" value="" style="rounded=0;orthogonalLoop=1;jettySize=auto;html=1;endArrow=none;endFill=0;sketch=0;sourcePerimeterSpacing=0;targetPerimeterSpacing=0;fontColor=#000000;exitX=1;exitY=0.5;exitDx=0;exitDy=0;exitPerimeter=0;" parent="1" source="36" target="44" edge="1">
                    <mxGeometry relative="1" as="geometry">
                        <mxPoint x="50" y="425" as="sourcePoint"/>
                    </mxGeometry>
                </mxCell>
                <mxCell id="43" value="" style="rounded=0;orthogonalLoop=1;jettySize=auto;html=1;endArrow=halfCircle;endFill=0;entryX=0.5;entryY=0.5;endSize=6;strokeWidth=1;sketch=0;fontColor=#000000;exitX=0;exitY=0.5;exitDx=0;exitDy=0;" parent="1" source="13" target="44" edge="1">
                    <mxGeometry relative="1" as="geometry">
                        <mxPoint x="90" y="425" as="sourcePoint"/>
                    </mxGeometry>
                </mxCell>
                <mxCell id="45" value="gRPC" style="edgeLabel;html=1;align=center;verticalAlign=middle;resizable=0;points=[];fontColor=#000000;" parent="43" vertex="1" connectable="0">
                    <mxGeometry x="0.2037" relative="1" as="geometry">
                        <mxPoint x="-24" y="15" as="offset"/>
                    </mxGeometry>
                </mxCell>
                <mxCell id="44" value="" style="ellipse;whiteSpace=wrap;html=1;align=center;aspect=fixed;resizable=0;points=[];outlineConnect=0;sketch=0;labelBackgroundColor=none;fontColor=#000000;" parent="1" vertex="1">
                    <mxGeometry x="65" y="420" width="10" height="10" as="geometry"/>
                </mxCell>
                <mxCell id="51" style="edgeStyle=none;html=1;fontColor=#000000;startArrow=none;startFill=0;" parent="1" source="50" target="27" edge="1">
                    <mxGeometry relative="1" as="geometry"/>
                </mxCell>
                <mxCell id="50" value="User" style="shape=umlActor;verticalLabelPosition=bottom;verticalAlign=top;html=1;labelBackgroundColor=none;fontColor=#000000;" parent="1" vertex="1">
                    <mxGeometry x="-32.86" y="45" width="50" height="100" as="geometry"/>
                </mxCell>
            </root>
        </mxGraphModel>
    </diagram>
</mxfile>